<?xml version="1.0" encoding="utf-8"?>
<!-- Generator: Adobe Illustrator 22.1.0, SVG Export Plug-In . SVG Version: 6.00 Build 0)  -->
<svg version="1.1" id="Layer_1" xmlns="http://www.w3.org/2000/svg" xmlns:xlink="http://www.w3.org/1999/xlink" x="0px" y="0px"
	 viewBox="0 0 1839.4 1600" style="enable-background:new 0 0 1839.4 1600;" xml:space="preserve">
<style type="text/css">
	.st0{fill:#FFFFFF;stroke:#000000;stroke-width:0.25;stroke-miterlimit:10;}
</style>
<path class="st0" d="M1839.4,1591.3c0,0-1.1-2.8-4-8.7c-2.9-5.9-7.6-14.9-14.6-27.1c-7-12.2-13-20.8-17.2-26.3
	c-4.2-5.5-6.6-7.9-6.6-7.9l-22-12l-13.4-23.1l-17.5-7.8l-7-12.1l-126.2-53.7l-1.9-3.3l-36.1-15.1l-7.2-12.4l12.3,4.7l-3.2-5.6l87,32
	l-3.7-6.4c0,0,1-1.2,2-2.6c1-1.3,1.9-2.6,1.9-2.6l-11-19l-9.7-7.9l-5.8-10.1l-14.9-3.8l-13.4-23.3l-27.8-5.4l-2.5-4.2l12.2,2.2
	l-19.2-33.2l-5-0.4l-17.2-29.7l-15.4,0.5l-3.2-5.5l-29.8,1.7l-8.3-14.3l37.6-4.9l-7.8-13.5l3.7-0.7l-10-17.3l-3.5,1l-7.8-13.5
	l-12.5,4.4l-10.8-18.7l-5.9,2.8l-6-10.3l77.8-42.1l-1.6-5.2l7.7-4.4c0,0,2.3-2.3,4.6-4.5c0.6-0.6,1.1-1.1,1.7-1.7
	c0.3-0.3,0.5-0.5,0.8-0.8c0.1-0.1,0.2-0.2,0.4-0.4c0.1-0.1,0.2-0.2,0.4-0.3c0.9-0.7,1.5-1.2,1.5-1.2l0.8-9.3l3.1-3l-4.2-7.2
	l-3.6,2.1l-2.6-3.3l-30.7,15.7l4.5-8.8l11.8-6.8l-4.4-7.7l-11.8,6.8l-32.7,0.3l-2.3-2.8l-25.2,14.5l-13.3-23.1l7-3.3l-2.2-4.9
	l13.4-7.7l-5.3-9.2l-12.3,7.1l-3.6-6.2l-8.2,4.7l-8.2-14.2l35-20.8l-19.1-3.6l6,7.8l-23.4,13.9l-6.6-11.4l5.1-3l-2.7-4.6l15.9-9.2
	l-5.9-10.3l-14.9,8.6l-3.6-6.2l-6.7,3.9l-2.4-4.1l-4.8,2.8c-4.5-2.1-17.6-8.4-22.7-12.1c-3.9-2.8-11.5-8.1-17.1-11.9l20.2-13.8
	l-8.4-7.5l-18.6,12.9l-1.7-2.9l16.2-11.1l-6.4-8.7l-11.6,7.1l-4.1-7.1l-4.1,2.4l-5.6-9.8l-12.8,7.4c0,0-5.8-30.2-9.3-44.6
	c-1.7-6.8-4.9-17.4-8-26.8l7.5-4.9l1.2,2.1l27.7-17.3l-7.8-14.7l-27.7,17.3l3.6,7.5l-6.6,3.7c-2.5-7.6-4.4-13.3-4.4-13.3l10-6.4
	l-3.9-6.7l22.6-14.2l-9.1-14.6l-19.3,12.1l-3.5-19.6l-13.3-23.1l-5.1,3c0,0-2.4-7.1-6.2-17.9l32.4-19.7l-32.9,18.3
	c-10.3-29.9-29.4-85.2-34.4-98.1c-2.8-7.3-8.8-21.2-14.9-35.2c-0.1-2.6-0.3-5.2-0.4-7.7c-0.5-11.2-0.9-21.4-1.2-28.8
	c-0.2-7.4-0.4-12-0.4-12l-3.1,0.1c0,0,0.1,4.6,0.4,11.9c0.3,7.3,0.7,17.5,1.2,28.6c-7.6-17.3-14.4-32.6-14.4-32.6l-45.2,26.1
	l22.6-14.2l-3.9-6.7l-4.6-0.8l-24.1,13.9l-1.2,2.7l-28,15.5l-7.2-8.9l28.8-16.6l2,2.3l26.4-15.9l-4.4-6.4l-26.5,14.6l-0.9,3.2
	l-25.6,12.7l-4.5-4.2l-3.1,1.8l-8.9-10.6l30.5-18.3l3.1,3l22.6-13.1l-5.6-8.4l-3.5-1.4l-3.9-6.7l-49.5,25.8l-4.7-8.2l47.3-27.3
	l-2.1-3.6l3.1-1.8l-1.5-2.6l6.7-3.9l-2.7-4.6l6.7-3.9l-3.9-6.7l4.6-2.7l-1.8-3.1l4.1-2.4l-2.1-3.6l7.2-4.2l-4.7-8.2l4.1-2.4
	l-21.5-37.2c0,0-5.2-1.5-10.2-2.8c-5-1.3-9.9-2.4-9.9-2.4l-12.2,10.8l-16.8-29.2l4.1-4.7l-40.8-70.7l-2.8,5.8l-9.1-15.7
	c0,0-1.4,0.2-2.8,0.5c-1.4,0.3-2.8,0.6-2.8,0.6l-5.8-8.8c0,0-0.9,1.1-1.8,2.2c-0.9,1.1-1.8,2.2-1.8,2.2l-5.9-11.5L984,434.7
	l-11.5-19.8l4.7-19.2l-2.2-3.8l5.1-22l-2.7-4.7l4.1-19c0,0-0.9-7.6-1.9-15.5c-1-7.8-2.1-15.9-2.1-15.9l1.7-9.5l-4.6-7.9l-1.5,9.2
	c0,0-2.4,1.1-4.6,2.4c-2.3,1.2-4.5,2.6-4.5,2.6l-3.3,23.4l-29.8-51.6l6.9-199.3l-6.4-11.1l0.5-24l-13.2-22.9l-1.8,3.2L916.8,0
	c0,0-1.9,2.4-5.6,7.9c-3.7,5.5-9.1,14-16.2,26.2c-7,12.2-11.5,21.7-14.2,28.1c-2.7,6.4-3.6,9.7-3.6,9.7L878,97l-13.4,23.1l2,19.1
	l-7,12.1l16.6,136.1l-1.9,3.3l5,38.8l-7.2,12.4l-2.1-13l-3.2,5.6l-15.8-91.4l-3.7,6.4c0,0-1.6-0.2-3.2-0.4c-1.6-0.2-3.2-0.3-3.2-0.3
	l-11,19l-2,12.4l-5.8,10.1l4.1,14.8l-13.4,23.3l9.2,26.7l-2.5,4.2l-4.2-11.7l-19.2,33.2l2.2,4.5l-17.2,29.7l8.2,13.1l-3.2,5.5
	l16.4,25l-8.3,14.3l-23.1-30.1l-7.8,13.5l-2.5-2.8l-10,17.3l2.6,2.6l-7.8,13.5l10.1,8.7l-10.8,18.7l5.4,3.7l-6,10.3l-75.4-46.3
	l-3.7,4l-7.7-4.5c0,0-3.1-0.8-6.2-1.7c-0.8-0.2-1.6-0.4-2.3-0.6c-0.4-0.1-0.7-0.2-1.1-0.3c-0.2,0-0.3-0.1-0.5-0.1
	c-0.1-0.1-0.3-0.1-0.4-0.2c-1.1-0.4-1.8-0.7-1.8-0.7l-8.5,4l-4.1-1.1l-4.2,7.2l3.6,2.1l-1.6,3.9l28.9,18.7l-9.9,0.5l-11.8-6.8
	l-4.4,7.7l11.8,6.8l16.6,28.2l-1.3,3.4l25.2,14.5L672.8,590l-6.4-4.4l-3.2,4.3l-13.4-7.7l-5.3,9.2l12.3,7.1l-3.6,6.2l8.2,4.7
	l-8.2,14.2l-35.5-20l6.5,18.4l3.8-9.1l23.7,13.3l-6.6,11.4l-5.1-3l-2.7,4.6l-15.9-9.2l-5.9,10.3l14.9,8.6l-3.6,6.2l6.7,3.9l-2.4,4.1
	l4.8,2.8c0.4,5,1.5,19.5,0.9,25.7c-0.5,4.7-1.2,14-1.8,20.7L613,701.9l-2.3,11l20.5,9.6l-1.7,2.9l-17.7-8.5l-4.3,9.8l12,6.5
	l-4.1,7.1l4.1,2.4l-5.6,9.8l12.8,7.4c0,0-23.3,20.1-34,30.4c-5,4.8-12.6,13-19.2,20.3l-8-4l1.2-2.1l-28.9-15.3l-8.8,14.1l28.9,15.3
	l4.7-6.9l6.5,3.8c-5.4,6-9.3,10.5-9.3,10.5l-10.6-5.4l-3.9,6.7l-23.6-12.5l-8.1,15.2l20.1,10.7l-15.2,12.8l-13.3,23.1l5.1,3
	c0,0-4.9,5.7-12.4,14.3l-33.3-18.2l32.3,19.3c-20.7,23.8-59.1,68.1-67.8,78.9c-4.9,6.1-14,18.2-23,30.5c-2.2,1.4-4.3,2.8-6.4,4.2
	c-9.4,6.1-18.1,11.5-24.3,15.4c-6.3,3.9-10.2,6.3-10.2,6.3l1.6,2.6c0,0,3.9-2.4,10.1-6.3c6.2-3.9,14.8-9.3,24.2-15.3
	c-11.2,15.2-21,28.8-21,28.8l45.2,26.1l-23.6-12.4l-3.9,6.7l1.6,4.3l24.1,13.9l2.9-0.4l27.4,16.5l-4.1,10.7l-28.8-16.6l1-2.9
	l-27-14.9l-3.3,7l25.9,15.6l3.2-0.9l23.8,15.8l-1.4,6l3.1,1.8l-4.8,13l-31.1-17.3l1-4.2l-22.6-13.1l-4.5,9l0.6,3.8l-3.9,6.7
	l47.1,29.9l-4.7,8.2l-47.3-27.3l-2.1,3.6l-3.1-1.8l-1.5,2.6l-6.7-3.9l-2.7,4.6l-6.7-3.9l-3.9,6.7l-4.6-2.7l-1.8,3.1l-4.1-2.4
	l-2.1,3.6l-7.2-4.2l-4.7,8.2l-4.1-2.4l-21.5,37.2c0,0,1.3,5.2,2.7,10.2c1.4,5,2.9,9.8,2.9,9.8l15.5,5.2l-16.8,29.2l-6.2-1.2
	l-40.8,70.7l6.4-0.5L254,1313c0,0,0.9,1.1,1.8,2.2c0.9,1.1,1.9,2.1,1.9,2.1l-4.7,9.4c0,0,1.4,0.2,2.8,0.5c1.4,0.2,2.8,0.5,2.8,0.5
	l-7,10.9l91.3-19.4l-11.5,19.8l-19,5.5l-2.2,3.8l-21.6,6.6l-2.7,4.7l-18.5,5.9c0,0-6.2,4.6-12.5,9.4c-6.3,4.8-12.7,9.8-12.7,9.8
	l-9.1,3.2l-4.6,7.9l8.7-3.3c0,0,2.1,1.5,4.4,2.8c2.2,1.4,4.5,2.5,4.5,2.5l21.9-8.9l-29.8,51.6l-176,93.7l-6.4,11.1l-21,11.5
	l-13.2,22.9h3.7L0,1594.7c0,0,3,0.4,9.6,0.9c6.6,0.4,16.7,0.9,30.8,0.9c14.1,0,24.5-0.9,31.4-1.8c6.9-0.9,10.2-1.8,10.2-1.8
	l21.4-13.1h26.7l15.5-11.3h13.9l109.6-82.5h3.9l31.1-23.7h14.4l-10.2,8.3h6.4l-71.2,59.3h7.4c0,0,0.6,1.5,1.2,3c0.6,1.5,1.3,3,1.3,3
	h21.9l11.7-4.5h11.7l10.7-11h26.9l18.5-21.4h4.9l-8,9.5h38.4l2.8-4.2h34.3l7.3-13.6h6.3l13.4-26.7h16.6l-14.5,35h15.5l-1.2,3.6h19.9
	l0.9-3.6H507l2.5-13.1H531l0.6-6.5h11.9l-2.4,88.4l5.3,1.2l-0.1,8.9c0,0,0.8,3.1,1.6,6.2c0.2,0.8,0.4,1.6,0.6,2.3
	c0.1,0.4,0.2,0.7,0.3,1.1c0,0.2,0.1,0.3,0.1,0.5c0,0.2,0,0.3,0.1,0.5c0.2,1.2,0.3,1.9,0.3,1.9l7.7,5.3l1.1,4.2h8.3v-4.2l4.2-0.6
	l1.8-34.4l5.3,8.3v13.6h8.9v-13.6l16.1-28.5l3.6-0.6V1511H633l-0.6,7.7l5.3,0.6v15.4h10.7v-14.2h7.1v-9.5h16.4l0.5,40.7l12.7-14.8
	l-9.8,1.3l-0.3-27.2h13.2v5.9h5.3v18.4h11.9v-17.2h7.1v-7.7h4.7v-5.6c4.1-2.8,16.1-11.1,21.8-13.6c4.3-1.9,12.7-5.9,18.8-8.8
	l1.9,24.4l10.7-3.6l-1.9-22.6h3.3l1.5,19.6l10.7-1.2l-0.4-13.7h8.2v-4.7h11.3v-14.8c0,0,29.1,10.1,43.3,14.2
	c6.7,1.9,17.6,4.4,27.2,6.5l0.5,8.9h-2.4l1.2,32.6l16.6,0.6l-1.2-32.6l-8.3-0.6l0.1-7.6c7.9,1.6,13.7,2.8,13.7,2.8l0.6,11.9h7.8
	l1,26.7l17.2-0.6l-0.8-22.8l18.7,6.8h26.7v-5.9c0,0,7.4,1.4,18.6,3.6l0.9,37.9l0.6-37.6c31,6,88.5,17.1,102.2,19.2
	c7.7,1.2,22.8,3,37.9,4.7c2.3,1.2,4.6,2.3,6.8,3.5c10,5.1,19,9.9,25.6,13.4c6.5,3.5,10.6,5.7,10.6,5.7l1.5-2.7c0,0-4-2.2-10.5-5.6
	c-6.5-3.4-15.5-8.2-25.4-13.3c18.8,2.1,35.4,3.8,35.4,3.8v-52.2l1,26.7h7.7l3-3.6v-27.9l-1.8-2.4l0.6-32l11.3-1.8v33.2l-3,0.6
	l0.6,30.9l7.7-0.6l0.6-30.3l-2.4-2.4l1.8-28.5l5.9-1.8v-3.6l13.6-2.4l0.6,35.6l-4.2,1.2v26.1l10.1-0.6l3-2.4h7.7l2.4-55.8h9.5v54.6
	h4.2v3.6h3v7.7h5.3v7.7h7.7v5.3h3.6v4.7h4.2v8.3h9.5v4.7h42.9c0,0,3.9-3.7,7.5-7.4c3.7-3.7,7-7.4,7-7.4l-3.3-16h33.7l2.1,5.9h81.6
	l-3.7-5.3h18.2c0,0,0.5-1.3,1-2.7c0.5-1.3,0.9-2.7,0.9-2.7l10.5-0.6c0,0-0.5-1.3-1-2.7c-0.5-1.3-1-2.7-1-2.7l12.9,0.6l-62.4-69.4
	h22.9l14.3,13.6h4.4l16.5,15.4h5.4l14.4,13.1c0,0,7.1,3,14.4,6.1c7.3,3,14.8,6.1,14.8,6.1l7.3,6.2h9.1l-7.2-5.9c0,0,0.2-2.6,0.3-5.2
	c0.1-2.6-0.1-5.2-0.1-5.2l-18.6-14.5h59.6l169.1,105.6h12.8l20.5,12.5h26.4l-1.8-3.2L1839.4,1591.3z M1457.6,1032.2l-2,1.2l-1.4-1.8
	l0,0L1457.6,1032.2z M624.6,613.5L624.6,613.5l-1.1-3.2l2,1.1L624.6,613.5z M436.8,1139.5l-27.9-15.9l1.9-3.6l28.2,15.8
	L436.8,1139.5z M677.4,1541L677.4,1541l-2.2,2.6l0-2.3L677.4,1541z M1306,895.5l1.3,4.7l-7.1,4.7l-1.5-5.5L1306,895.5z
	 M1287.7,922.8l-2.9-4.1l12.3-7.1l1.8,5.6L1287.7,922.8L1287.7,922.8z M1284.2,914.7l-3.7-5.9l0,0l14.2-7.9l1.3,6.2L1284.2,914.7z
	 M1275.2,900.2l-0.6-1.1l17.2-9.7l0.4,1.2L1275.2,900.2z M1267,892l20.4-11.8l2.4,6.1l-14.9,8.3L1267,892z M1294.4,884l-3-7.2
	l5.6-3.8l4.1,7.2L1294.4,884L1294.4,884z M1200.5,718.5l-9.3,5.4l-3.5-7.6l14.6-8c0.9,3.8,1.7,7.6,2.6,11.3l-2.8,1.5L1200.5,718.5z
	 M1182.9,695.9l14.7-8.4c1,4.6,2.1,9.4,3.1,14.1l-9.1,5.1l-4.9-8.4l-3.1,1.8L1182.9,695.9z M1198.3,734.8l8.7-5l-1.5-2.6l0.9-0.5
	c0.9,3.9,1.8,7.7,2.6,11.5l-6.7,3.8L1198.3,734.8z M1205.4,747.1l5.1-2.9c0.9,3.9,1.8,7.7,2.7,11.5l-2.2,1.2L1205.4,747.1z
	 M1220,771.1c-0.9-3.9-1.9-8-3-12.3l0.9-0.5C1218.7,762.6,1219.4,766.9,1220,771.1L1220,771.1z M1216.8,770.7
	c0.2,0.6,0.3,1.3,0.5,1.9l-4.5,2.6l-0.7-1.7L1216.8,770.7z M1213.3,760.8l1-0.5c0.3,1.3,0.6,2.6,0.9,3.8L1213.3,760.8z M1218.4,777
	c0.5,1.9,1,3.8,1.4,5.6l-2,1.3l-2.9-5L1218.4,777z M1227.6,796.5c0-0.2-0.1-0.3-0.1-0.5l6.6-5.1l-2.3-4l6.8-3.9
	c0.7,4.6,1.3,8.7,1.8,11.8l-5.9,3.3L1227.6,796.5z M1229.8,783.5l-3.1-5.5l-2.1,1.4c-0.3-1.8-0.6-3.5-0.9-5.4l12.4-6.9
	c0.6,4.2,1.3,8.2,1.8,11.9L1229.8,783.5z M1222.9,769.4c-0.7-4.1-1.4-8.4-2.1-12.7l12.7-7c0.7,4.3,1.3,8.5,1.9,12.6L1222.9,769.4z
	 M1220,751.9c-0.7-4-1.3-8-2-11.9l12.9-7.2c0.6,4,1.2,8,1.8,12.1L1220,751.9z M1217,733.7c-0.7-4.2-1.3-8.2-1.9-12l13-7.4
	c0.6,3.8,1.2,7.9,1.8,12.2L1217,733.7z M1215.2,741.6c0.7,3.9,1.3,7.9,2,11.9l-1.2,0.6c-0.9-3.7-1.8-7.6-2.7-11.5L1215.2,741.6z
	 M1211.9,736.6c-0.9-3.8-1.8-7.7-2.6-11.5l3-1.7c0.6,3.8,1.3,7.9,1.9,12L1211.9,736.6z M1207.6,718.1c-0.8-3.8-1.7-7.5-2.6-11.3
	l4.3-2.3c0.5,3.4,1.1,7.4,1.7,11.7L1207.6,718.1z M1203.6,700.1c-0.4-1.9-0.8-3.8-1.3-5.6c-0.6-2.9-1.3-5.7-1.9-8.5l6.4-3.6
	c0.6,5.4,1.1,10.5,1.7,15L1203.6,700.1z M1199.1,679.8L1199.1,679.8c-1.2-5.4-2.3-10.6-3.4-15.6l8.9-5.3c0.5,5.7,1.1,11.5,1.6,17
	L1199.1,679.8z M1196.3,681.3l-14.6,8l-2.8-15.2l14-8.3C1194,670.8,1195.1,676,1196.3,681.3z M1177.5,666.5l-2.7-14.7l13.4-7.7
	c1,4.5,2,9.3,3.1,14.4L1177.5,666.5z M1176.1,675.8l2.8,15.1l-1.1,0.6l-6.6-12.8L1176.1,675.8z M1167.6,672.3L1167.6,672.3
	l-6.1-12.7l10.5-6.1l2.7,14.7L1167.6,672.3z M1341,1016.1l-1.1,0.7l-1.1-1.8l0.4-0.3C1339.8,1015.2,1340.4,1015.6,1341,1016.1z
	 M1351.2,1051.3l-1.1-9.6c0,0-0.8-0.8-1.9-1.7l4.8-2.8l-7.4-12.8l3.2-1.9c1.4,1.2,2.9,2.4,4.4,3.6c7.2,6,14.4,10.6,18.7,13.2
	L1351.2,1051.3z M1355.2,1023.9c-3.3-2.8-6.6-5.5-9.7-8l-1-1.7l-0.7,0.4c-1.4-1.1-2.6-2.1-3.8-3.1l-1-3l3.7-2.1l-0.4-0.7l1.3-0.9
	c4.8,4.6,11.6,10.9,18.4,16.8c7.7,6.6,13.9,11.1,17.5,13.6l-4.6,2.7l0,0C1371,1035.4,1363.1,1030.5,1355.2,1023.9z M1316.3,929.9
	l-10.5,6.3l-0.7-6.2l0,0l10.1-5.5L1316.3,929.9z M1314.4,920.6l-9.8,5.1l-1.7-5.9l10.1-5L1314.4,920.6z M1311.4,910.9l-8.8,5.3
	l-1.4-6.4l0,0l8.2-5.3L1311.4,910.9z M1304.6,891.6l-0.6,0.3L1304.6,891.6L1304.6,891.6z M1295.2,888.9l-0.5-1.4l7.3-3.4l0.3,0.8
	L1295.2,888.9z M1268.6,779.1l-25.3,14.2c-0.5-3.2-1.1-7.3-1.8-11.9l24.1-13.9L1268.6,779.1z M1264,764.7l-23.1,12.7
	c-0.6-3.7-1.2-7.7-1.8-11.9l21.2-11.7L1264,764.7z M1258.3,749.3l-20.1,11.4c-0.6-4.1-1.3-8.3-1.9-12.6l18.9-10.4L1258.3,749.3z
	 M1252.3,734.1l-16.8,9.2c-0.6-4.1-1.2-8.1-1.8-12.1l14.4-8L1252.3,734.1z M1246.9,716.9l-14.2,7.9c-0.6-4.3-1.3-8.4-1.8-12.2
	l11.7-6.7L1246.9,716.9z M1240.1,700.2l-10.2,5.6c-0.1-0.6-0.2-1.2-0.3-1.8c-0.4-3-0.9-6.3-1.2-9.9l8.1-4.4L1240.1,700.2z
	 M1228.7,669.9l4.9,13.4l-5.9,3.3c-0.4-4.9-0.9-10.1-1.2-15.4L1228.7,669.9z M1225.5,695.7c0.4,3.2,0.7,6.1,1.1,8.8
	c0.1,0.9,0.3,1.9,0.4,2.9l-13.1,7.2c-0.7-4.4-1.2-8.3-1.7-11.7L1225.5,695.7z M1223.5,672.8c0.4,5.3,0.8,10.5,1.3,15.4l-13.4,7.5
	c-0.5-4.6-1.1-9.7-1.7-15.1L1223.5,672.8z M1222.4,655.9c0.2,3.5,0.4,7.1,0.7,10.6l-14,7.7c-0.5-5.6-1.1-11.4-1.6-17.1l12.7-7.6
	L1222.4,655.9z M1216.6,644l-9.8,5.6c-0.5-5.4-0.9-10.6-1.3-15.5l5.9-3.4L1216.6,644z M1205.5,612.2l4.4,12.5l-5,2.7
	c-0.4-5.6-0.8-10.4-1.1-14.3L1205.5,612.2z M1203.9,651.3l-9.8,5.6c-1.1-5.1-2.2-9.9-3.1-14.4l11.6-6.7
	C1203,640.7,1203.4,646,1203.9,651.3z M1200.9,614.8c0.3,3.9,0.7,8.8,1.1,14.2l-12.4,6.9c-1.1-5-2-9.5-2.8-13.2L1200.9,614.8z
	 M1183.9,624.3c0.8,3.8,1.8,8.2,2.8,13.2l-13.3,7.3l-2.5-13.3L1183.9,624.3z M1170.7,646.4l-12.1,6.7l-5.7-11.3l15.4-8.7
	L1170.7,646.4z M1156.5,631.5l2.2,2.7l-31.1,17.9l-2-2.8L1156.5,631.5z M1120.4,589.7l2.2,3.5l-27.8,16.5l-2.2-3.8L1120.4,589.7z
	 M613.7,812.1L613.7,812.1l-2.1,4.6l-12.3-7.1l4-4.4L613.7,812.1z M608.5,819.2l-3.3,6.2l0,0l-14-8.3l4.7-4.2L608.5,819.2z
	 M600.4,834.2l-0.6,1.1l-17-10.1l0.8-0.9L600.4,834.2z M595.8,837.3L595.8,837.3l1.6,8.2L577,833.7l4.1-5.1L595.8,837.3z
	 M464.5,1020.6L464.5,1020.6l-11.8,10.1l-14.2-8c3.8-3.5,7.7-7,11.7-10.7L464.5,1020.6z M445.9,1002.4L445.9,1002.4
	c4.4-3.2,8.5-6.2,12.2-9l4.8,2.9c-1.4,1.3-2.8,2.6-4.2,3.9c-2.2,2-4.3,3.9-6.4,5.9L445.9,1002.4z M455,1007.7
	c3.5-3.2,7.1-6.5,10.7-9.8l9,5.3l-4.9,8.4l3.1,1.8l-3.3,2.8L455,1007.7z M479.2,985.4l2.7,1.6l-1.6,2.7l9.3,5.4l-4.9,6.8l-14.2-8.7
	C473.5,990.7,476.3,988,479.2,985.4z M478.7,977.2c3-2.4,6.2-5,9.4-7.7l2.2,1.3c-2.9,2.7-5.8,5.4-8.7,8.1L478.7,977.2z M467.9,991.6
	l-4.2-2.6c2.7-2.1,5.9-4.6,9.3-7.4l3.4,2.1C473.6,986.4,470.8,989,467.9,991.6z M484.4,980.6c2.9-2.7,5.8-5.4,8.7-8.1l6.6,3.9
	l-4.1,7.1l-8.7-5l-1.5,2.6L484.4,980.6z M509.7,956.9c1-0.9,1.9-1.8,2.9-2.7l-1.9,3.3L509.7,956.9z M526.2,941l2.2,1.1l-2.9,5
	l-3.4-2.1C523.5,943.7,524.9,942.3,526.2,941z M523.4,950.8l-1.2,1.5l-4.7-2.7c0.5-0.5,1-0.9,1.4-1.4L523.4,950.8z M507,955.3
	l-0.9-0.5c3.4-2.8,6.7-5.6,10-8.3l0,0C513.2,949.3,510.2,952.3,507,955.3z M506.2,960.2l2.1,1.3l-5.6,9.8l-5-3
	C500.6,965.5,503.4,962.8,506.2,960.2z M494.9,966.6l-1.9-1.1c3.1-2.5,6.2-5.1,9.3-7.6l1.1,0.7C500.7,961.2,497.8,963.9,494.9,966.6
	z M534.4,927.3c-0.1,0.1-0.3,0.2-0.4,0.3l-7.7-3.2l-2.3,4l-6.8-3.9c3.7-2.9,6.8-5.5,9.3-7.5l5.8,3.5L534.4,927.3z M522,931.9
	l-3.1,5.5l2.2,1.1c-1.4,1.1-2.8,2.3-4.2,3.5l-12.2-7.3c3.3-2.6,6.4-5.2,9.3-7.5L522,931.9z M513.3,944.9c-3.2,2.7-6.6,5.4-9.9,8.2
	l-12.4-7.5c3.4-2.7,6.7-5.4,10-8L513.3,944.9z M499.6,956.2c-3.1,2.6-6.3,5.1-9.3,7.7l-12.7-7.5c3.1-2.5,6.4-5.1,9.6-7.6
	L499.6,956.2z M485.3,967.9c-3.3,2.7-6.4,5.2-9.4,7.7L463,968c3-2.4,6.3-5,9.6-7.7L485.3,967.9z M470.3,980
	c-3.5,2.8-6.6,5.2-9.3,7.3l-12.9-7.9c2.6-1.9,4.9-3.7,7.1-5.4c0.8-0.6,1.5-1.2,2.3-1.8L470.3,980z M455.2,991.8
	c-3.7,2.7-7.8,5.8-12.2,9l-13.7-8c4.4-3,8.7-6,12.7-8.8L455.2,991.8z M447.6,1010.3L447.6,1010.3c-4.1,3.7-8,7.3-11.8,10.8l-9-5.1
	c4.7-3.3,9.4-6.6,13.9-9.9L447.6,1010.3z M430.3,1026.1c-3.9,3.5-7.5,6.8-10.9,9.9l-11.6-6.7c4-2.8,8.3-5.8,12.7-8.9L430.3,1026.1z
	 M433.1,1027.7l13.8,8l-11.3,9.7l-13.4-7.7C425.6,1034.5,429.2,1031.2,433.1,1027.7z M449.7,1037.3l7.1,4.1l-7.9,11.6l-10.5-6.1
	L449.7,1037.3z M455.6,1032.2l11.7-10l1,0.6l-7.8,12.1L455.6,1032.2z M668,721.7l-0.4-0.2c0.1-0.7,0.2-1.5,0.4-2.3l1.1,0.7
	L668,721.7z M687.1,644.6l3.9-7.1l14.2,8.2l-18.7,1.8C686.7,645.6,687.1,644.6,687.1,644.6z M709.7,648.4l4,2.3l-5.1,8.5l6.4,3.7
	l-1.7,2.9l3.3,1.9l-3.5,8.3l-2.6-2.7c0,0-2.8-3-6.9-1.8l-8.5-4.9c0,0-7.5-4.8-8.5-11.3c-0.3-1.7-0.3-3.2-0.3-4.5L709.7,648.4z
	 M672.6,680.9l20.6,11.9l-7.8,5.7c0,0-0.3,1.1-0.5,2.5l-4.8-2.8l-7.4,12.8l-3.2-1.8c0.3-1.8,0.6-3.7,1-5.6
	C672.2,694.4,672.6,685.9,672.6,680.9z M665,676.5l4.6,2.7l0,0c0,4.5-0.3,13.8-2.1,24c-0.8,4.3-1.5,8.5-2.1,12.4l-1,1.7l0.7,0.4
	c-0.3,1.7-0.5,3.3-0.8,4.8l-2.1,2.4l-3.7-2.1l-0.4,0.7l-1.4-0.7c1.6-6.4,3.7-15.5,5.3-24.3C663.8,688.5,664.6,680.9,665,676.5z
	 M662.1,674.8c-0.3,4-1,12.1-3.1,23.1c-1.6,8.5-3.6,17.2-5.1,23.5l-8.2-3.9c0.9-6.7,2.1-18.1,1.5-27.7c-0.7-11.4-3.3-22.1-4.4-26.2
	L662.1,674.8z M639.8,674.9c-0.2-3-0.4-5.7-0.5-7.7c-0.2-2-0.3-3.2-0.3-3.2l-0.6,0.1l1.3-2.2l0.9,0.5l0,0l-1.2,0.3
	c0,0,0.2,0.8,0.6,2.3c0.4,1.5,0.9,3.5,1.4,6.1c1.1,5,2.3,11.9,2.7,19c0.6,8.9-0.5,19.5-1.3,26.1l-4.7-2.2c0.5-6.8,1.4-16.9,1.9-21.9
	C640.4,687.8,640.1,680.8,639.8,674.9z M605.6,783.7l10.7,5.9l-5,3.7l0,0l-9.8-6L605.6,783.7z M598.5,790l9.3,5.9l-4.3,4.4l-9.4-6.3
	L598.5,790z M591.5,797.6l9,4.9l-4.9,4.4l0,0l-8.7-4.4L591.5,797.6z M592,810.3l-4,4l-7-4.4l3.4-3.5L592,810.3z M578.3,813l0.6,0.4
	L578.3,813L578.3,813z M580.6,822.5l-1,1.1l-6.6-4.7l0.5-0.6L580.6,822.5z M570,821.8l6.7,3.9l0,0l-4.7,6.2l-6.1-2.9L570,821.8z
	 M498.8,900.5l24.9,14.9c-2.6,2.1-5.7,4.6-9.3,7.5L490.3,909L498.8,900.5z M488.7,911.7l22.6,13.7c-2.9,2.3-6.1,4.9-9.4,7.5
	l-20.7-12.5L488.7,911.7z M478.2,924.3l19.9,11.7c-3.2,2.6-6.6,5.3-9.9,8l-18.5-11.2L478.2,924.3z M468,937.1l16.4,9.9
	c-3.2,2.6-6.4,5.1-9.6,7.7l-14.1-8.4L468,937.1z M455.8,950.3l13.9,8.3c-3.4,2.7-6.6,5.3-9.6,7.7l-11.6-6.8L455.8,950.3z
	 M444.8,964.6l9.9,6c-0.5,0.4-1,0.8-1.4,1.1c-2.4,1.9-5,3.9-8,6l-7.8-4.8L444.8,964.6z M433.4,978.7l5.8,3.5
	c-4,2.8-8.3,5.8-12.7,8.8l-2.2-1.3L433.4,978.7z M415.3,1002.1c3-2,5.9-3.9,8.9-5.9l13.7,8.3c-4.6,3.2-9.3,6.6-14,9.9l-12.9-7.3
	L415.3,1002.1z M407.8,1013.1l9.8,5.6c-4.4,3.1-8.7,6.1-12.7,8.9l-5.9-3.4L407.8,1013.1z M385.8,1038.5l8.6-10l4.9,2.9
	c-4.6,3.2-8.6,5.9-11.8,8.1L385.8,1038.5z M390.4,1041.3c3.2-2.2,7.3-5,11.8-8.1l12.2,7.3c-3.8,3.4-7.2,6.5-10,9L390.4,1041.3z
	 M407.1,1051.2c2.9-2.6,6.2-5.6,10-9l13,7.8l-10.3,8.8L407.1,1051.2z M432.9,1051.6l11.9,7.1l-6.9,10.6l-15.2-9L432.9,1051.6z
	 M427.1,1071.3l1.2-3.2l31.1,17.9l-1.4,3.1L427.1,1071.3z M673.1,1471.4l-8.1,0.2v-16.4l10.9,15.3
	C674.2,1471.2,673.1,1471.4,673.1,1471.4z M682.5,1466.6c-1.3,1.1-2.6,1.9-3.7,2.5l-13.7-19.2v-4.6l0,0l9.9,0.2v-7.4h3.3v-3.8
	l8.9-1.1l-1.1,3.7c0,0-1.1,3.9,1.9,6.9v9.9C688,1453.6,687.6,1462.5,682.5,1466.6z M749.5,1449.8c-0.7,0.3-1.4,0.5-2.2,0.8v-1.3h2.1
	L749.5,1449.8z M720.6,1445.8c0,0,1.1-0.2,2.4-0.8v5.5h14.8v3.7c-1.8,0.6-3.5,1.3-5.3,2c-8.8,3.2-16.4,7.1-20.8,9.6v-23.8
	L720.6,1445.8z M711.8,1469.2L711.8,1469.2c3.9-2.2,12.1-6.6,21.8-10.2c4.1-1.5,8.1-3,11.8-4.4h2v-0.8c1.6-0.6,3.2-1.2,4.6-1.8
	l3.1,0.6v4.3h0.8l0.1,1.6c-6.4,1.8-15.2,4.5-23.7,7.6c-9.5,3.4-16.5,6.5-20.5,8.4L711.8,1469.2L711.8,1469.2z M757,1470.8
	c-6.2,2.6-16.7,7.2-24.8,12.6c-9.5,6.4-17.4,13.9-20.5,16.9v-22.3c3.6-1.8,11-5.1,21.6-8.9c8.1-2.9,16.7-5.5,23-7.3L757,1470.8z
	 M737.7,1488.5c-3.8,1.7-9.7,5.4-14.7,8.7c-2.5,1.6-4.8,3.2-6.4,4.3c-1.6,1.1-2.7,1.9-2.7,1.9l0.4,0.5h-2.5v-1.1l0,0l0.9,0.8
	c0,0,0.6-0.6,1.7-1.7s2.6-2.5,4.5-4.3c3.8-3.5,9.1-7.9,15.1-11.8c7.4-4.9,17.1-9.3,23.3-11.9l0.4,5.2
	C751.5,1482,742.3,1486.4,737.7,1488.5z M839.6,1474.1l-5.3-1.8l-0.3-12.3l5.7,2.5h0L839.6,1474.1z M849.1,1477.1l-5.8-1.8l0.5-11
	l6,1.5L849.1,1477.1z M853.3,1477.6l-0.3-10.3l6.3,2h0l0.5,9.8L853.3,1477.6z M859.9,1464.8l-5.8-1.3l0.8-12.5h0l5-0.5V1464.8z
	 M869.3,1480.6l-4.7-1.2l-0.5-8.5l5.5,1.5L869.3,1480.6z M870.4,1468.1l-6-2l-0.8-14l7-0.3h0L870.4,1468.1z M873.4,1481.3l0-0.7
	L873.4,1481.3L873.4,1481.3z M881.1,1482.8l-0.8-0.2l0.1-8.1l1.5,0.3L881.1,1482.8z M881.6,1471.3l-1.2-0.2l0.2-19.5h1.3
	L881.6,1471.3z M891.9,1448.6v23.5l-6.5-1l0.3-17L891.9,1448.6z M885.1,1484.1v-7.8h0l7.8,1l0.5,6.8H885.1z M1000.4,1509.6
	l-11.6-3.2l0.4-29c3.1,1.2,6.9,2.7,11.2,4.3L1000.4,1509.6L1000.4,1509.6z M989.3,1474.2l0.1-6.8l4.9-5.2c0.2,0.1,0.3,0.1,0.5,0.2
	l1.1,8.3h4.6v7.8C996.1,1476.8,992.3,1475.3,989.3,1474.2z M1014.9,1511.7l-11.2-2.1l0.5-26.4c3.5,1.4,7.3,2.8,11.2,4.3
	L1014.9,1511.7z M1015.4,1484.3c-3.9-1.5-7.7-3-11.2-4.3l0.2-9.3h6.3l-0.1-2.5c1.7,0.6,3.4,1.2,5.1,1.9L1015.4,1484.3z
	 M1020.1,1465.2l0-5.2l1.9,0.3v5.5C1021.4,1465.6,1020.7,1465.4,1020.1,1465.2z M1010.3,1462.4l-0.1-2.4h5.8l-0.1,4
	C1013.9,1463.4,1012,1462.9,1010.3,1462.4z M1031.4,1515.6l-11.6-3.2l0.2-23.1c3.9,1.5,7.9,3.1,11.9,4.6L1031.4,1515.6z
	 M1031.9,1490.7c-4-1.6-8-3.1-11.9-4.6l0.1-14.4c3.9,1.5,8,3,12.1,4.5L1031.9,1490.7z M1032.2,1473c-4.1-1.5-8.2-3-12.1-4.5v-0.1
	c3.9,1.1,7.9,2.3,12.2,3.6L1032.2,1473z M1028.5,1467.7h3.8l0,1.1C1031,1468.4,1029.8,1468.1,1028.5,1467.7z M1047.5,1516.6
	l-11.6-1.8l0.4-19.2c3.8,1.5,7.7,3,11.4,4.5L1047.5,1516.6z M1047.8,1496.9c-3.8-1.5-7.6-3-11.4-4.5l0.3-14.6
	c3.8,1.4,7.6,2.9,11.3,4.3L1047.8,1496.9z M1048,1478.9c-3.7-1.4-7.5-2.8-11.3-4.2l0-1.3c3.7,1.1,7.4,2.2,11.3,3.4L1048,1478.9z
	 M1036.8,1470.2l0.1-2.5h11.3l-0.1,5.9C1044.3,1472.4,1040.5,1471.3,1036.8,1470.2z M1065.1,1520.5l-11.6-1.8l0.2-16.2
	c4,1.6,7.9,3.1,11.5,4.5L1065.1,1520.5z M1065.2,1503.7c-3.6-1.4-7.5-2.9-11.5-4.5l0.2-14.8c3.9,1.5,7.7,3,11.4,4.3L1065.2,1503.7z
	 M1065.3,1485.5c-3.6-1.4-7.4-2.8-11.3-4.3l0-2.6c3.7,1.1,7.5,2.3,11.3,3.5L1065.3,1485.5z M1054.1,1475.4l0.1-7.7h8.2v10.1h3.1
	l0,1.1C1061.6,1477.7,1057.8,1476.5,1054.1,1475.4z M1082.3,1523.3l-10.9-2.1l0.2-11.6c0.6,0.2,1.1,0.5,1.7,0.7
	c2.8,1.1,5.9,2.4,9.2,3.9L1082.3,1523.3z M1082.6,1510.8c-2.9-1.3-5.7-2.4-8.2-3.4c-0.9-0.4-1.8-0.7-2.8-1.1l0.3-14.9
	c4.1,1.6,7.8,3.1,11,4.4L1082.6,1510.8z M1083.1,1492.5c-3.2-1.3-6.9-2.8-11-4.4l0.1-4c3.7,1.1,7.4,2.3,11.1,3.5L1083.1,1492.5z
	 M1083.3,1484.4c-3.7-1.2-7.4-2.3-11.1-3.5l0.1-3.2h3.1V1467l8.3,0.8L1083.3,1484.4z M1103.4,1526.5l-14.1-2.5l0.1-6.8
	c4.4,2.1,9.2,4.3,14,6.6L1103.4,1526.5z M1103.4,1520.5c-4.8-2.3-9.5-4.6-14-6.6l0.2-15.4c4.2,1.8,8.9,3.9,13.9,6.1L1103.4,1520.5z
	 M1103.6,1501.3c-5-2.2-9.6-4.3-13.8-6.1l0.1-5.6c1.8,0.6,3.7,1.2,5.5,1.7c2.8,0.9,5.6,1.8,8.3,2.6L1103.6,1501.3z M1103.6,1490.8
	c-4.5-1.4-9.2-2.9-13.8-4.3l0.1-10.5h9.7v-3.6l4,1.4L1103.6,1490.8z M1124.6,1481.2l0.2,16.3c-4.9-1.6-9.9-3.2-15.1-4.8l0.3-16.7
	L1124.6,1481.2z M1110.1,1472.8l0-1.2l14.4,0.7l0.1,5.6L1110.1,1472.8z M1124.8,1500.7l0.1,10.3c-5.2-2.4-10.4-4.8-15.5-7.1l0.2-8.1
	C1114.8,1497.6,1119.9,1499.2,1124.8,1500.7z M1118.6,1528c-3.2-1.6-6.4-3.2-9.5-4.7l0.3-16c5.1,2.3,10.4,4.8,15.6,7.2l0.2,14.8
	L1118.6,1528z M1145.9,1531l-14.1-2.1v-11.3c4.9,2.3,9.6,4.5,14.1,6.6V1531z M1145.9,1520.9c-4.5-2.1-9.2-4.3-14.1-6.6V1503
	c5,1.6,9.7,3.1,14.1,4.5V1520.9z M1145.9,1504.3c-4.4-1.4-9.1-2.9-14.1-4.5v-16l14.1,5V1504.3z M1145.9,1485.6l-14.1-5v-8.2
	l14.1,1.1V1485.6z M1164.9,1535.2l-13-2.5l0.1-5.7c5,2.4,9.5,4.5,12.9,6.2L1164.9,1535.2z M1165,1529.9c-3.6-1.7-7.9-3.8-12.9-6.1
	l0.3-14.2c4.9,1.6,9.2,3,12.8,4.1L1165,1529.9z M1165.2,1510.5c-3.7-1.2-8-2.6-12.8-4.1l0.3-15.2l12.7,4.5L1165.2,1510.5z
	 M1165.4,1492.5l-12.7-4.5l0.3-13.9l12.6,0.7L1165.4,1492.5z M1172.7,1483.1l-3.4,0.6v-35.9l3.4-0.3V1483.1z M1222.9,1472.9
	l-0.5-32.3h4.4l0.2,32.2L1222.9,1472.9z M1169.3,1275.5H668.5H549l59.6-103.3l0,0l310.1-537.2l59.6,103.3l0,0l310.1,537.2H1169.3z
	 M1377.5,1090l-4.8-8.7l-6.4,3.7l-1.7-2.9l-3.3,1.9l-5.4-7.2l3.7-0.9c0,0,4-1,5-5l8.5-4.9c0,0,7.9-4.1,14.1-1.7c1.6,0.6,2.9,1.3,4,2
	l-9.8,21.4L1377.5,1090z M1386.1,1085.1l7.8-17.1c1.5,1.2,2.2,2,2.2,2l4.2,6.9L1386.1,1085.1z M1382.5,1033.3
	c-3.3-2.2-9.9-6.9-18.5-14.2c-6.6-5.6-13.1-11.7-17.8-16.2l7.5-5.1c5.3,4.1,14.6,10.9,23.3,15.2c10.3,5.1,20.8,8.2,24.9,9.3
	L1382.5,1033.3z M1404,1020.9L1404,1020.9l0.3-1.2c0,0-0.8-0.2-2.3-0.6c-1.4-0.4-3.5-1-6-1.8c-4.9-1.6-11.4-4-17.8-7.1
	c-8-3.9-16.6-10.2-22-14.2l4.3-2.9c5.6,3.8,14,9.6,18.1,12.6c3.4,2.4,9.6,5.7,14.9,8.4c2.7,1.3,5.1,2.5,6.9,3.4
	c1.8,0.8,2.9,1.4,2.9,1.4l0.3-0.6l1.3,2.2L1404,1020.9z"/>
</svg>
