<?xml version="1.0" encoding="utf-8"?>
<!-- Generator: Adobe Illustrator 22.1.0, SVG Export Plug-In . SVG Version: 6.00 Build 0)  -->
<svg version="1.1" xmlns="http://www.w3.org/2000/svg" xmlns:xlink="http://www.w3.org/1999/xlink" x="0px" y="0px"
	 viewBox="0 0 74.7 128.2" style="enable-background:new 0 0 74.7 128.2;" xml:space="preserve">
<style type="text/css">
	.st0{display:none;}
	.st1{display:inline;}
	.st2{fill:url(#XMLID_17_);}
	.st3{fill:url(#XMLID_18_);}
	.st4{fill:url(#XMLID_97_);}
	.st5{fill:url(#XMLID_127_);}
	.st6{fill:url(#XMLID_128_);}
	.st7{fill:#7F8C8D;}
	.st8{fill:#95A5A6;}
	.st9{fill:#757575;}
	.st10{fill:#616161;}
	.st11{fill:#424242;}
	.st12{fill:#EE3E30;}
	.st13{fill:#931A3D;}
	.st14{fill:#F58B1F;}
	.st15{fill:#FFC724;}
	.st16{fill:#2D2D2D;}
	.st17{fill:url(#XMLID_129_);}
	.st18{fill:#D7DF32;}
	.st19{fill:url(#XMLID_132_);}
	.st20{fill:url(#XMLID_133_);}
	.st21{fill:url(#XMLID_134_);}
</style>
<g id="BACKGROUND">
</g>
<g id="OBJECTS">
	<g id="XMLID_28_">
		<g id="XMLID_152_" class="st0">
			<g id="XMLID_56_" class="st1">
				
					<linearGradient id="XMLID_17_" gradientUnits="userSpaceOnUse" x1="454.4459" y1="-15928.4521" x2="376.0735" y2="-15850.0791" gradientTransform="matrix(1 0 0 -1 0 -16044.9385)">
					<stop  offset="0" style="stop-color:#F58B1F"/>
					<stop  offset="0.4946" style="stop-color:#ED6723"/>
					<stop  offset="1" style="stop-color:#EE3E30"/>
				</linearGradient>
				<path id="XMLID_37_" class="st2" d="M450.2-185.7c-9-9-20.7-13.5-32.5-13.5c-11.8,0-23.5,4.5-32.5,13.5
					c-2.1,2.1-3.9,4.4-5.6,6.7c6.4-9.3,17.1-15.4,29.3-15.4c19.6,0,35.5,15.9,35.5,35.5c0,6.3-1.6,12.2-4.5,17.3
					c-0.7,1.3-1.5,2.6-2.4,3.8c-1.8,2.4-3.8,4.5-6.1,6.4l-13.6,13.6L402.9-103l14.8,14.8l32.5-32.5
					C468.1-138.7,468.1-167.8,450.2-185.7z"/>
				
					<linearGradient id="XMLID_18_" gradientUnits="userSpaceOnUse" x1="348.811" y1="-15850.8965" x2="464.8898" y2="-15932.666" gradientTransform="matrix(1 0 0 -1 0 -16044.9385)">
					<stop  offset="0" style="stop-color:#C41E51"/>
					<stop  offset="0.1672" style="stop-color:#B41D4A"/>
					<stop  offset="0.4272" style="stop-color:#A21B43"/>
					<stop  offset="0.6992" style="stop-color:#971A3E"/>
					<stop  offset="1" style="stop-color:#931A3D"/>
				</linearGradient>
				<path id="XMLID_34_" class="st3" d="M444.4-159c0-19.6-15.9-35.5-35.5-35.5c-12.2,0-22.9,6.1-29.3,15.4
					c-0.1,0.1-0.2,0.3-0.3,0.4c-0.3,0.4-0.5,0.8-0.8,1.2c0,0,0,0.1-0.1,0.1c-10.9,17.7-8.7,41.2,6.7,56.6l10.3,10.3l14.8-14.8
					L400-135.5c-9.8-9.8-9.8-25.7,0-35.5c4.7-4.7,11-7.3,17.7-7.3s13,2.6,17.7,7.3c7.9,7.9,9.4,19.9,4.5,29.3
					C442.8-146.8,444.4-152.7,444.4-159z"/>
				
					<linearGradient id="XMLID_97_" gradientUnits="userSpaceOnUse" x1="418.3174" y1="-15923.6016" x2="418.3174" y2="-15887.2168" gradientTransform="matrix(1 0 0 -1 0 -16044.9385)">
					<stop  offset="0" style="stop-color:#C41E51"/>
					<stop  offset="0.1672" style="stop-color:#B41D4A"/>
					<stop  offset="0.4272" style="stop-color:#A21B43"/>
					<stop  offset="0.6992" style="stop-color:#971A3E"/>
					<stop  offset="1" style="stop-color:#931A3D"/>
				</linearGradient>
				<path id="XMLID_13_" class="st4" d="M434-152.6c0,8.6-7,15.7-15.7,15.7c-8.6,0-15.7-7-15.7-15.7c0-2.5,0.6-4.9,1.7-7
					c2.6-5.1,7.9-8.6,14-8.6c6.1,0,11.4,3.5,14,8.6C433.4-157.5,434-155.2,434-152.6z"/>
			</g>
			<g id="XMLID_6_" class="st1">
				
					<text id="XMLID_35_" transform="matrix(1 0 0 1 301.2426 -47.4494)" class="st16" style="font-family:'Montserrat-ExtraBold'; font-size:33.705px;">LOREM</text>
				
					<text id="XMLID_4_" transform="matrix(1 0 0 1 298.2958 -21.4357)" class="st16" style="font-family:'Montserrat-ExtraLight'; font-size:20.4021px;">Your Tagline</text>
			</g>
		</g>
		<g id="XMLID_168_" class="st0">
			<g id="XMLID_58_" class="st1">
				
					<text id="XMLID_10_" transform="matrix(1 0 0 1 758.9667 -46.9142)" class="st16" style="font-family:'Montserrat-ExtraBold'; font-size:33.705px;">LOREM</text>
				
					<text id="XMLID_8_" transform="matrix(1 0 0 1 756.0204 -20.8995)" class="st16" style="font-family:'Montserrat-ExtraLight'; font-size:20.4021px;">Your Tagline</text>
			</g>
			<g id="XMLID_60_" class="st1">
				<g id="XMLID_102_">
					
						<linearGradient id="XMLID_127_" gradientUnits="userSpaceOnUse" x1="832.4952" y1="-15945.458" x2="909.2681" y2="-15868.6846" gradientTransform="matrix(1 0 0 -1 0 -16044.9385)">
						<stop  offset="0" style="stop-color:#F58B1F"/>
						<stop  offset="0.4946" style="stop-color:#ED6723"/>
						<stop  offset="1" style="stop-color:#EE3E30"/>
					</linearGradient>
					<path id="XMLID_11_" class="st5" d="M902.8-143.3c-6.4-1.2-10.6-7.4-9.3-13.8l1.2-6.1c3.1-16.4-7.1-32.7-23.5-36
						c-16.6-3.4-32.8,7.6-35.7,24.3c-2.9,16.4,8.4,32,24.8,35.1l6.1,1.2c6.4,1.2,10.6,7.4,9.3,13.8c-2.5,13,5.7,26.1,18.7,28.6
						c13,2.6,25.7-6,28.1-19.1C924.9-128.3,915.8-140.8,902.8-143.3z"/>
					
						<linearGradient id="XMLID_128_" gradientUnits="userSpaceOnUse" x1="845.7188" y1="-15971.8701" x2="845.7188" y2="-15903.8457" gradientTransform="matrix(1 0 0 -1 0 -16044.9385)">
						<stop  offset="0" style="stop-color:#C41E51"/>
						<stop  offset="0.2054" style="stop-color:#B71A4B"/>
						<stop  offset="0.5869" style="stop-color:#940F3A"/>
						<stop  offset="1" style="stop-color:#680225"/>
					</linearGradient>
					<circle id="XMLID_12_" class="st6" cx="845.7" cy="-112.5" r="16.8"/>
				</g>
			</g>
		</g>
		<g id="XMLID_123_">
			<g id="XMLID_61_">
				<g id="XMLID_36_">
					<g id="XMLID_14_">
						<polygon id="XMLID_15_" class="st7" points="0,22.1 37.3,0.8 37.3,43.3 						"/>
						<polyline id="XMLID_40_" class="st8" points="74.7,22.1 37.3,0.8 37.3,43.3 74.7,22.1 						"/>
						<polyline id="XMLID_41_" class="st9" points="74.7,64.5 74.7,22.1 37.3,43.3 						"/>
						<polygon id="XMLID_27_" class="st10" points="0,64.5 37.3,85.7 37.3,43.3 						"/>
						<polygon id="XMLID_43_" class="st11" points="37.3,43.3 37.3,85.7 74.7,64.5 						"/>
					</g>
					<g id="XMLID_42_">
						<polygon id="XMLID_46_" class="st9" points="0,64.5 0,106.9 37.3,85.7 						"/>
						<polygon id="XMLID_45_" class="st8" points="0,106.9 37.3,128.2 37.3,85.7 						"/>
						<polygon id="XMLID_44_" class="st7" points="37.3,85.7 37.3,128.2 74.7,106.9 						"/>
					</g>
				</g>
			</g>
		</g>
		<g id="XMLID_124_" class="st0">
			<g id="XMLID_98_" class="st1">
				
					<text id="XMLID_20_" transform="matrix(1 0 0 1 529.0263 198.5482)" class="st16" style="font-family:'Montserrat-ExtraBold'; font-size:33.705px;">LOREM</text>
				
					<text id="XMLID_19_" transform="matrix(1 0 0 1 526.0795 224.5619)" class="st16" style="font-family:'Montserrat-ExtraLight'; font-size:20.4021px;">Your Tagline</text>
			</g>
			<g id="XMLID_62_" class="st1">
				<g id="XMLID_107_">
					<path id="XMLID_48_" class="st12" d="M642.1,96.5v55.6l0,0c-30.7,0-55.6-24.9-55.6-55.6l0,0H642.1z"/>
					<path id="XMLID_50_" class="st13" d="M642.1,96.5L642.1,96.5h-55.6V40.9l0,0C617.2,40.9,642.1,65.8,642.1,96.5z"/>
					<path id="XMLID_52_" class="st14" d="M697.7,96.5L697.7,96.5c0,30.7-24.9,55.6-55.6,55.6l0,0l0,0
						C642.1,121.4,667,96.5,697.7,96.5L697.7,96.5z"/>
					<path id="XMLID_51_" class="st15" d="M697.7,96.5L697.7,96.5L697.7,96.5c-30.7,0-55.6-24.9-55.6-55.6l0,0l0,0
						C672.8,40.9,697.7,65.8,697.7,96.5z"/>
				</g>
			</g>
		</g>
		<g id="XMLID_135_" class="st0">
			<g id="XMLID_99_" class="st1">
				
					<text id="XMLID_22_" transform="matrix(1 0 0 1 760.3203 192.5873)" class="st16" style="font-family:'Montserrat-ExtraBold'; font-size:33.705px;">LOREM</text>
				
					<text id="XMLID_21_" transform="matrix(1 0 0 1 757.374 218.6009)" class="st16" style="font-family:'Montserrat-ExtraLight'; font-size:20.4021px;">Your Tagline</text>
			</g>
			<g id="XMLID_63_" class="st1">
				<g id="XMLID_75_">
					<g id="XMLID_49_">
						<path id="XMLID_89_" class="st15" d="M830.8,115.5h-21.3l0,0c0,10.3,9.5,18.7,21.3,18.7h85.1l-20.6-18.7H830.8z"/>
						<g id="XMLID_76_">
							<path id="XMLID_82_" class="st12" d="M915.9,46.8h-85.1v18.7h106.4l0,0C937.2,55.2,927.7,46.8,915.9,46.8z"/>
							<path id="XMLID_87_" class="st13" d="M915.9,65.6v68.7l0,0c11.8,0,21.3-8.4,21.3-18.7V65.6H915.9z"/>
						</g>
					</g>
					<path id="XMLID_74_" class="st14" d="M809.5,115.5h21.3V46.8l0,0c-11.8,0-21.3,8.4-21.3,18.7V115.5z"/>
					<path id="XMLID_65_" class="st16" d="M860,89.6c0,3.3-3.1,6-6.9,6s-6.9-2.7-6.9-6c0-3.3,3.1-6,6.9-6S860,86.3,860,89.6z"/>
					<path id="XMLID_77_" class="st16" d="M883.1,89.6c0,3.3-3.1,6-6.9,6c-3.8,0-6.9-2.7-6.9-6c0-3.3,3.1-6,6.9-6
						C880,83.6,883.1,86.3,883.1,89.6z"/>
					<path id="XMLID_91_" class="st16" d="M906.2,89.6c0,3.3-3.1,6-6.9,6c-3.8,0-6.9-2.7-6.9-6c0-3.3,3.1-6,6.9-6
						C903.1,83.6,906.2,86.3,906.2,89.6z"/>
				</g>
			</g>
		</g>
		<g id="XMLID_148_" class="st0">
			<g id="XMLID_100_" class="st1">
				
					<text id="XMLID_25_" transform="matrix(1 0 0 1 301.2426 452.4095)" class="st16" style="font-family:'Montserrat-ExtraBold'; font-size:33.705px;">LOREM</text>
				
					<text id="XMLID_23_" transform="matrix(1 0 0 1 298.2958 478.4232)" class="st16" style="font-family:'Montserrat-ExtraLight'; font-size:20.4021px;">Your Tagline</text>
			</g>
			<g id="XMLID_64_" class="st1">
				<g id="XMLID_94_">
					
						<linearGradient id="XMLID_129_" gradientUnits="userSpaceOnUse" x1="504.6294" y1="-16436.5977" x2="348.5722" y2="-16339.2471" gradientTransform="matrix(1 0 0 -1 0 -16044.9385)">
						<stop  offset="0" style="stop-color:#F58B1F"/>
						<stop  offset="0.4946" style="stop-color:#ED6723"/>
						<stop  offset="1" style="stop-color:#EE3E30"/>
					</linearGradient>
					<path id="XMLID_125_" class="st17" d="M415.6,278.5c-35.7,0-64.6,28.9-64.6,64.6c0,0.1,0,0.1,0,0.2
						c0.1-31.2,25.4-56.5,56.6-56.5c2.7,0,5.4,0.2,8.1,0.6c24.4,3.5,43.8,22.6,47.8,46.9c0.5,2.5,0.7,5.1,0.8,7.7c0,0.3,0,0.7,0,1
						c0,0.4,0,0.7,0,1c0,0.7,0,1.4-0.1,2.2c0-0.2,0-0.4,0-0.6c-1.3,21.2-18.9,38-40.4,38c-2.8,0-5.5-0.3-8.2-0.8
						c-18.4-3.8-32.3-20.2-32.3-39.8c0-17.8,14.5-32.3,32.3-32.3c17.8,0,32.3,14.5,32.3,32.3c0-19.6-13.9-36-32.3-39.8
						c-2.6-0.5-5.4-0.8-8.2-0.8c-20.8,0-38,15.8-40.2,36.1c-0.1,1.6-0.2,3.3-0.2,5c0,0.6,0,1.1,0,1.7c0,0.2,0,0.4,0,0.6
						c1.1,27.5,21.8,50,48.5,53.8c2.6,0.4,5.3,0.6,8.1,0.6c29.3,0,53.4-22.3,56.3-50.9c0.1-1.5,0.2-2.9,0.3-4.4c0-0.6,0-1.2,0-1.9
						C480.2,307.4,451.3,278.5,415.6,278.5z"/>
					<g id="XMLID_122_">
						<defs>
							<path id="XMLID_88_" d="M423.6,400.2c-2.7,0-5.4-0.2-8.1-0.6c-26.7-3.8-47.4-26.3-48.5-53.8c0-0.6-0.1-1.1-0.1-1.7
								c0-0.3,0-0.7,0-1c0-0.4,0-0.7,0-1c0.1-2.4,0.3-4.7,0.7-7c-0.2,1.2-0.3,2.4-0.4,3.5c2.2-20.3,19.4-36.1,40.2-36.1
								c2.8,0,5.5,0.3,8.2,0.8c18.4,3.8,32.3,20.2,32.3,39.8c0,17.8-14.5,32.3-32.3,32.3c-17.8,0-32.3-14.5-32.3-32.3
								c0,19.6,13.9,36,32.3,39.8c2.6,0.5,5.4,0.8,8.2,0.8c21.5,0,39-16.8,40.4-38c0-0.7,0-1.4,0-2.2c0-1.8-0.1-3.5-0.2-5.3
								c-0.1-1.3-0.3-2.6-0.5-3.9c-3.9-24.3-23.3-43.4-47.8-46.9c-2.6-0.4-5.3-0.6-8.1-0.6c-31.2,0-56.5,25.3-56.6,56.5
								c0,2.1,0.1,4.3,0.3,6.4c3.3,32.6,30.8,58,64.2,58c33.5,0,61.1-25.6,64.3-58.3C476.9,377.9,452.8,400.2,423.6,400.2z"/>
						</defs>
						
							<linearGradient id="XMLID_130_" gradientUnits="userSpaceOnUse" x1="470.9236" y1="-16482.5527" x2="391.8647" y2="-16366.2031" gradientTransform="matrix(1 0 0 -1 0 -16044.9385)">
							<stop  offset="0" style="stop-color:#C41E51"/>
							<stop  offset="0.1672" style="stop-color:#B41D4A"/>
							<stop  offset="0.4272" style="stop-color:#A21B43"/>
							<stop  offset="0.6992" style="stop-color:#971A3E"/>
							<stop  offset="1" style="stop-color:#931A3D"/>
						</linearGradient>
						<use xlink:href="#XMLID_88_"  style="overflow:visible;fill:url(#XMLID_130_);"/>
						<clipPath id="XMLID_131_">
							<use xlink:href="#XMLID_88_"  style="overflow:visible;"/>
						</clipPath>
					</g>
				</g>
			</g>
		</g>
		<g id="XMLID_150_" class="st0">
			<g id="XMLID_103_" class="st1">
				
					<text id="XMLID_90_" transform="matrix(1 0 0 1 536.0351 452.4095)" class="st16" style="font-family:'Montserrat-ExtraBold'; font-size:33.705px;">LOREM</text>
				
					<text id="XMLID_53_" transform="matrix(1 0 0 1 533.0883 478.4232)" class="st16" style="font-family:'Montserrat-ExtraLight'; font-size:20.4021px;">Your Tagline</text>
			</g>
			<g id="XMLID_66_" class="st1">
				<g id="XMLID_95_">
					<polygon id="XMLID_101_" class="st18" points="649.8,300.5 649.8,300.5 649.8,278.5 649.8,278.5 649.8,300.5 					"/>
					<polygon id="XMLID_104_" class="st13" points="649.8,384.9 649.8,384.9 649.8,384.9 624.4,370.3 613.3,363.8 613.3,363.8 
						613.3,363.8 594.2,374.8 594.2,374.9 649.8,407 705.5,374.9 686.4,363.8 					"/>
					<polygon id="XMLID_117_" class="st14" points="686.4,321.6 686.4,363.8 705.5,374.9 705.5,310.6 649.8,278.5 649.8,300.5 					
						"/>
					<polygon id="XMLID_137_" class="st12" points="594.2,374.8 613.3,363.8 613.3,363.8 613.3,321.6 649.8,300.5 649.8,300.5 
						649.8,278.5 649.8,278.5 594.2,310.6 594.2,374.9 					"/>
					<polygon id="XMLID_138_" class="st15" points="633.2,360.7 626,356.5 626,329 649.8,342.7 649.8,370.3 649.8,370.3 
						649.8,342.7 673.7,329 649.8,315.2 649.8,315.2 626,329 626,356.5 626,356.5 					"/>
					<polygon id="XMLID_139_" class="st12" points="649.8,342.7 649.8,370.3 673.7,356.5 673.7,329 					"/>
					<polygon id="XMLID_140_" class="st14" points="626,329 626,356.5 633.2,360.7 649.8,370.3 649.8,370.3 649.8,342.7 					"/>
				</g>
			</g>
		</g>
		<g id="XMLID_151_" class="st0">
			<g id="XMLID_105_" class="st1">
				
					<text id="XMLID_93_" transform="matrix(1 0 0 1 769.6142 449.5648)" class="st16" style="font-family:'Montserrat-ExtraBold'; font-size:33.705px;">LOREM</text>
				
					<text id="XMLID_92_" transform="matrix(1 0 0 1 766.6669 475.5785)" class="st16" style="font-family:'Montserrat-ExtraLight'; font-size:20.4021px;">Your Tagline</text>
			</g>
			<g id="XMLID_72_" class="st1">
				<g id="XMLID_96_">
					<g id="XMLID_120_">
						<polygon id="XMLID_121_" class="st13" points="842.5,313.5 842.6,313.4 824,302.7 824,345.6 842.5,334.9 						"/>
						<polygon id="XMLID_202_" class="st12" points="824,302.7 842.6,313.4 861.1,302.7 861.1,281.3 						"/>
						<polygon id="XMLID_203_" class="st13" points="935.4,302.7 898.2,281.3 898.2,302.7 916.8,313.5 916.8,313.5 						"/>
						<polygon id="XMLID_208_" class="st12" points="879.6,377.7 861.1,367 842.5,377.7 879.7,399.2 879.7,377.7 						"/>
						<polygon id="XMLID_209_" class="st13" points="916.8,377.7 898.2,367 898.2,367 879.7,377.7 879.7,399.2 						"/>
						<polygon id="XMLID_210_" class="st12" points="916.8,313.5 916.8,334.9 935.3,345.6 935.4,302.7 						"/>
						<line id="XMLID_216_" class="st13" x1="898.2" y1="345.6" x2="898.3" y2="345.6"/>
					</g>
					<polygon id="XMLID_213_" class="st14" points="879.7,372.1 895.4,363 895.4,344.8 879.7,335.7 					"/>
					<polygon id="XMLID_215_" class="st15" points="866.3,343.4 863.9,344.8 863.9,363 863.9,363 879.6,372.1 879.6,335.7 					"/>
					<polygon id="XMLID_223_" class="st15" points="879.6,317.5 863.9,308.4 848.2,317.4 879.6,335.6 					"/>
					<polygon id="XMLID_224_" class="st14" points="848.1,335.7 863.9,344.8 879.6,335.7 848.1,317.5 					"/>
					<polygon id="XMLID_225_" class="st15" points="879.7,335.7 879.7,335.7 879.6,335.7 879.6,335.7 879.7,335.7 879.7,335.7 
						895.4,344.8 895.4,344.8 895.4,344.8 895.5,344.8 911.2,335.7 911.2,335.7 911.2,317.5 911.2,317.5 					"/>
					<polygon id="XMLID_227_" class="st14" points="879.7,335.7 911.2,317.5 895.4,308.4 879.7,317.4 					"/>
				</g>
			</g>
		</g>
		<g id="XMLID_153_" class="st0">
			<g id="XMLID_39_" class="st1">
				
					<text id="XMLID_16_" transform="matrix(1 0 0 1 535.9975 -66.5626)" class="st16" style="font-family:'Montserrat-ExtraBold'; font-size:33.705px;">LOREM</text>
				
					<text id="XMLID_7_" transform="matrix(1 0 0 1 533.0512 -40.548)" class="st16" style="font-family:'Montserrat-ExtraLight'; font-size:20.4021px;">Your Tagline</text>
			</g>
			<g id="XMLID_59_" class="st1">
				<g id="XMLID_106_">
					
						<linearGradient id="XMLID_132_" gradientUnits="userSpaceOnUse" x1="613.1345" y1="-15943.0313" x2="613.1345" y2="-15866.4912" gradientTransform="matrix(1 0 0 -1 0 -16044.9385)">
						<stop  offset="0" style="stop-color:#C41E51"/>
						<stop  offset="4.115909e-02" style="stop-color:#BE1C4E"/>
						<stop  offset="0.3242" style="stop-color:#99113C"/>
						<stop  offset="0.5873" style="stop-color:#7E0930"/>
						<stop  offset="0.8206" style="stop-color:#6E0428"/>
						<stop  offset="1" style="stop-color:#680225"/>
					</linearGradient>
					<polygon id="XMLID_9_" class="st19" points="589,-180.1 589,-146.2 589,-112.3 637.3,-112.3 637.3,-146.2 637.3,-180.1 					
						"/>
					
						<linearGradient id="XMLID_133_" gradientUnits="userSpaceOnUse" x1="685.52" y1="-15839.29" x2="685.52" y2="-15925.4648" gradientTransform="matrix(1 0 0 -1 0 -16044.9385)">
						<stop  offset="0" style="stop-color:#C41E51"/>
						<stop  offset="4.115909e-02" style="stop-color:#BE1C4E"/>
						<stop  offset="0.3242" style="stop-color:#99113C"/>
						<stop  offset="0.5873" style="stop-color:#7E0930"/>
						<stop  offset="0.8206" style="stop-color:#6E0428"/>
						<stop  offset="1" style="stop-color:#680225"/>
					</linearGradient>
					<polygon id="XMLID_24_" class="st20" points="661.4,-180.1 661.4,-146.2 661.4,-112.3 709.6,-112.3 709.6,-146.2 709.6,-180.1 
											"/>
					
						<linearGradient id="XMLID_134_" gradientUnits="userSpaceOnUse" x1="604.0517" y1="-58.0573" x2="604.0517" y2="96.7199" gradientTransform="matrix(0.7071 0.7071 -0.7071 0.7071 275.2426 -626.3574)">
						<stop  offset="0" style="stop-color:#F58B1F"/>
						<stop  offset="0.4946" style="stop-color:#ED6723"/>
						<stop  offset="1" style="stop-color:#EE3E30"/>
					</linearGradient>
					<polygon id="XMLID_26_" class="st21" points="661.4,-180.1 589,-112.3 637.6,-112.3 661.6,-136.3 709.6,-180.1 					"/>
				</g>
			</g>
		</g>
	</g>
</g>
<g id="DESIGNED_BY_FREEPIK">
</g>
</svg>
